<svg xmlns="http://www.w3.org/2000/svg" viewBox="30 85 340 192">   <!-- Basket base -->   <path d="M50 250 C 50 280, 350 280, 350 250 L 350 150 C 350 120, 50 120, 50 150 Z" fill="#e6d7b8"></path>      <!-- Vertical weave -->   <g stroke="#d4c39c" stroke-width="10" fill="none">     <path d="M70 130 v 130"></path>     <path d="M110 125 v 140"></path>     <path d="M150 120 v 150"></path>     <path d="M190 118 v 154"></path>     <path d="M230 118 v 154"></path>     <path d="M270 120 v 150"></path>     <path d="M310 125 v 140"></path>     <path d="M330 130 v 130"></path>   </g>      <!-- Horizontal weave -->   <g stroke="#c4b181" stroke-width="15" fill="none">     <path d="M50 150 h 300"></path>     <path d="M50 180 h 300"></path>     <path d="M50 210 h 300"></path>     <path d="M50 240 h 300"></path>   </g>      <!-- Dark band -->   <path d="M40 165 C 40 165, 360 165, 360 165" stroke="#5b4c2b" stroke-width="20" fill="none"></path>      <!-- Handle -->   <path d="M170 130 C 170 80, 230 80, 230 130" stroke="#d4c39c" stroke-width="15" fill="none"></path> </svg>